<svg width="226" height="61" viewBox="0 0 226 61" fill="none" xmlns="http://www.w3.org/2000/svg">
<path d="M0.181818 47V0.454544H27.1818V4.27272H4.43182V21.7955H25.75V25.6136H4.43182V43.1818H27.6364V47H0.181818ZM39.8409 12.0909L48.8409 26.9773L57.8409 12.0909H62.5455L51.3182 29.5455L62.5455 47H57.8409L48.8409 32.5909L39.8409 47H35.1591L46.25 29.5455L35.1591 12.0909H39.8409ZM71.0284 60.0909V12.0909H74.9602V18.75H75.4375C75.9223 17.7045 76.589 16.6364 77.4375 15.5455C78.286 14.4394 79.4072 13.5076 80.8011 12.75C82.2102 11.9924 83.983 11.6136 86.1193 11.6136C88.9981 11.6136 91.5133 12.3712 93.6648 13.8864C95.8314 15.3864 97.5133 17.4924 98.7102 20.2045C99.9224 22.9015 100.528 26.0455 100.528 29.6364C100.528 33.2424 99.9224 36.4015 98.7102 39.1136C97.5133 41.8258 95.8314 43.9394 93.6648 45.4545C91.5133 46.9697 89.0133 47.7273 86.1648 47.7273C84.0587 47.7273 82.2936 47.3485 80.8693 46.5909C79.4602 45.8333 78.3163 44.9015 77.4375 43.7955C76.5739 42.6742 75.9072 41.5833 75.4375 40.5227H75.0739V60.0909H71.0284ZM75.0284 29.5682C75.0284 32.3864 75.4451 34.8864 76.2784 37.0682C77.1269 39.2348 78.339 40.9394 79.9148 42.1818C81.5057 43.4091 83.4299 44.0227 85.6875 44.0227C88.0057 44.0227 89.9602 43.3864 91.5511 42.1136C93.1572 40.8258 94.3769 39.0909 95.2102 36.9091C96.0587 34.7273 96.483 32.2803 96.483 29.5682C96.483 26.8864 96.0663 24.4697 95.233 22.3182C94.4148 20.1667 93.2027 18.4621 91.5966 17.2045C89.9905 15.9318 88.0208 15.2955 85.6875 15.2955C83.4148 15.2955 81.483 15.9091 79.892 17.1364C78.3011 18.3485 77.089 20.0303 76.2557 22.1818C75.4375 24.3182 75.0284 26.7803 75.0284 29.5682ZM109.403 47V12.0909H113.335V17.4545H113.631C114.328 15.697 115.54 14.2803 117.267 13.2045C119.009 12.1136 120.979 11.5682 123.176 11.5682C123.509 11.5682 123.881 11.5758 124.29 11.5909C124.699 11.6061 125.04 11.6212 125.312 11.6364V15.75C125.131 15.7197 124.813 15.6742 124.358 15.6136C123.903 15.553 123.411 15.5227 122.881 15.5227C121.063 15.5227 119.441 15.9091 118.017 16.6818C116.608 17.4394 115.494 18.4924 114.676 19.8409C113.858 21.1894 113.449 22.7273 113.449 24.4545V47H109.403ZM145.267 47.7273C142.009 47.7273 139.191 46.9697 136.812 45.4545C134.434 43.9242 132.593 41.8106 131.29 39.1136C130.002 36.4015 129.358 33.2803 129.358 29.75C129.358 26.2348 130.002 23.1136 131.29 20.3864C132.593 17.6439 134.388 15.5 136.676 13.9545C138.979 12.3939 141.638 11.6136 144.653 11.6136C146.547 11.6136 148.373 11.9621 150.131 12.6591C151.888 13.3409 153.464 14.3939 154.858 15.8182C156.267 17.2273 157.381 19.0076 158.199 21.1591C159.017 23.2955 159.426 25.8258 159.426 28.75V30.75H132.153V27.1818H155.29C155.29 24.9394 154.835 22.9242 153.926 21.1364C153.032 19.3333 151.782 17.9091 150.176 16.8636C148.585 15.8182 146.744 15.2955 144.653 15.2955C142.441 15.2955 140.494 15.8864 138.812 17.0682C137.131 18.25 135.813 19.8106 134.858 21.75C133.919 23.6894 133.441 25.8106 133.426 28.1136V30.25C133.426 33.0227 133.903 35.447 134.858 37.5227C135.828 39.5833 137.199 41.1818 138.972 42.3182C140.744 43.4545 142.843 44.0227 145.267 44.0227C146.919 44.0227 148.366 43.7652 149.608 43.25C150.866 42.7348 151.919 42.0455 152.767 41.1818C153.631 40.303 154.282 39.3409 154.722 38.2955L158.562 39.5455C158.032 41.0152 157.161 42.3712 155.949 43.6136C154.752 44.8561 153.252 45.8561 151.449 46.6136C149.661 47.3561 147.6 47.7273 145.267 47.7273ZM191.795 19.75L188.091 20.7955C187.727 19.75 187.212 18.803 186.545 17.9545C185.879 17.1061 185.008 16.4318 183.932 15.9318C182.871 15.4318 181.553 15.1818 179.977 15.1818C177.614 15.1818 175.674 15.7424 174.159 16.8636C172.644 17.9848 171.886 19.4318 171.886 21.2045C171.886 22.7045 172.402 23.9242 173.432 24.8636C174.477 25.7879 176.083 26.5227 178.25 27.0682L183.523 28.3636C186.447 29.0758 188.636 30.2045 190.091 31.75C191.561 33.2955 192.295 35.2348 192.295 37.5682C192.295 39.5379 191.75 41.2879 190.659 42.8182C189.568 44.3485 188.045 45.553 186.091 46.4318C184.152 47.2955 181.902 47.7273 179.341 47.7273C175.932 47.7273 173.121 46.9621 170.909 45.4318C168.697 43.8864 167.28 41.6591 166.659 38.75L170.545 37.7955C171.045 39.8712 172.023 41.4394 173.477 42.5C174.947 43.5606 176.879 44.0909 179.273 44.0909C181.955 44.0909 184.098 43.4924 185.705 42.2955C187.311 41.0833 188.114 39.5682 188.114 37.75C188.114 36.3409 187.644 35.1591 186.705 34.2045C185.765 33.2348 184.341 32.5227 182.432 32.0682L176.727 30.7045C173.697 29.9773 171.455 28.8258 170 27.25C168.545 25.6742 167.818 23.7197 167.818 21.3864C167.818 19.4621 168.341 17.7727 169.386 16.3182C170.432 14.8485 171.871 13.697 173.705 12.8636C175.538 12.0303 177.629 11.6136 179.977 11.6136C183.174 11.6136 185.727 12.3409 187.636 13.7955C189.561 15.2348 190.947 17.2197 191.795 19.75ZM224.608 19.75L220.903 20.7955C220.54 19.75 220.025 18.803 219.358 17.9545C218.691 17.1061 217.82 16.4318 216.744 15.9318C215.684 15.4318 214.366 15.1818 212.79 15.1818C210.426 15.1818 208.487 15.7424 206.972 16.8636C205.456 17.9848 204.699 19.4318 204.699 21.2045C204.699 22.7045 205.214 23.9242 206.244 24.8636C207.29 25.7879 208.896 26.5227 211.062 27.0682L216.335 28.3636C219.259 29.0758 221.449 30.2045 222.903 31.75C224.373 33.2955 225.108 35.2348 225.108 37.5682C225.108 39.5379 224.563 41.2879 223.472 42.8182C222.381 44.3485 220.858 45.553 218.903 46.4318C216.964 47.2955 214.714 47.7273 212.153 47.7273C208.744 47.7273 205.934 46.9621 203.722 45.4318C201.509 43.8864 200.093 41.6591 199.472 38.75L203.358 37.7955C203.858 39.8712 204.835 41.4394 206.29 42.5C207.759 43.5606 209.691 44.0909 212.085 44.0909C214.767 44.0909 216.911 43.4924 218.517 42.2955C220.123 41.0833 220.926 39.5682 220.926 37.75C220.926 36.3409 220.456 35.1591 219.517 34.2045C218.578 33.2348 217.153 32.5227 215.244 32.0682L209.54 30.7045C206.509 29.9773 204.267 28.8258 202.812 27.25C201.358 25.6742 200.631 23.7197 200.631 21.3864C200.631 19.4621 201.153 17.7727 202.199 16.3182C203.244 14.8485 204.684 13.697 206.517 12.8636C208.35 12.0303 210.441 11.6136 212.79 11.6136C215.987 11.6136 218.54 12.3409 220.449 13.7955C222.373 15.2348 223.759 17.2197 224.608 19.75Z" fill="white"/>
</svg>
